<svg width="5295" height="2366" viewBox="0 0 5295 2366" fill="none" xmlns="http://www.w3.org/2000/svg">
<path d="M852.192 444.423H680.667C669.951 444.423 661.264 453.11 661.264 463.826V515.753C661.264 528.485 651.716 539.126 639.123 540.998C330.865 586.815 0 870.982 0 1294.67C0 1716.25 341.752 2058 763.325 2058C1184.9 2058 1526.65 1715.73 1526.65 1294.67C1526.65 882.951 1210.51 595.905 893.162 542.255C880.829 540.17 871.595 529.639 871.595 517.13V463.826C871.595 453.11 862.908 444.423 852.192 444.423Z" fill="white"/>
<path d="M766.818 140C825.271 140 872.551 187.223 872.551 245.346C872.551 303.468 825.271 350.69 766.818 350.69C708.365 350.69 661.085 303.468 661.084 245.346C661.084 187.223 708.365 140 766.818 140Z" stroke="white" stroke-width="40"/>
<rect x="731.892" y="324.899" width="69.8518" height="158.331" rx="12" fill="white"/>
<path d="M763.4 1152.25C686.307 1152.25 623.811 1214.75 623.811 1291.84C623.811 1298.17 624.231 1304.39 625.046 1310.49L242.153 1310.49L297.258 1449.51H759.444H1229.47L1284.57 1310.49H901.754C902.569 1304.39 902.989 1298.17 902.989 1291.84C902.989 1214.75 840.493 1152.25 763.4 1152.25Z" fill="black"/>
<circle cx="763.714" cy="1291.18" r="54.3292" fill="white"/>
<path d="M617.734 977.058L716.985 1141.16C679.981 1153.36 662.552 1163.96 636.628 1189.76L537.377 1025.66L617.734 977.058Z" fill="black"/>
<path d="M917.294 1631.17C947.344 1612.12 966.284 1600.86 997.651 1582.57L927.796 1467.07L818.043 1467.07L917.294 1631.17Z" fill="black"/>
<rect x="749.742" y="567.052" width="27.1646" height="116.42" rx="12" fill="black"/>
<rect x="749.742" y="1901.22" width="27.1646" height="116.42" rx="12" fill="black"/>
<rect x="906.499" y="2003.93" width="23.2839" height="116.42" rx="11.642" transform="rotate(170 906.499 2003.93)" fill="#8A8A8E"/>
<rect x="674.823" y="690.026" width="23.2839" height="116.42" rx="11.642" transform="rotate(170 674.823 690.026)" fill="#8A8A8E"/>
<rect x="1027.92" y="1968.59" width="23.2839" height="116.42" rx="11.642" transform="rotate(160 1027.92 1968.59)" fill="#8A8A8E"/>
<rect x="571.604" y="714.882" width="23.2839" height="116.42" rx="11.642" transform="rotate(160 571.604 714.882)" fill="#8A8A8E"/>
<rect x="1141.35" y="1912.71" width="27.1646" height="116.42" rx="12" transform="rotate(150 1141.35 1912.71)" fill="black"/>
<rect x="474.271" y="757.284" width="27.1646" height="116.42" rx="12" transform="rotate(150 474.271 757.284)" fill="black"/>
<rect x="1243.37" y="1837.98" width="23.2839" height="116.42" rx="11.642" transform="rotate(140 1243.37 1837.98)" fill="#8A8A8E"/>
<rect x="385.779" y="815.943" width="23.2839" height="116.42" rx="11.642" transform="rotate(140 385.779 815.943)" fill="#8A8A8E"/>
<rect x="1330.85" y="1746.67" width="23.2839" height="116.42" rx="11.642" transform="rotate(130 1330.85 1746.67)" fill="#8A8A8E"/>
<rect x="308.818" y="889.078" width="23.2839" height="116.42" rx="11.642" transform="rotate(130 308.818 889.078)" fill="#8A8A8E"/>
<rect x="1401.15" y="1641.55" width="27.1646" height="116.42" rx="12" transform="rotate(120 1401.15 1641.55)" fill="black"/>
<rect x="245.726" y="974.466" width="27.1646" height="116.42" rx="12" transform="rotate(120 245.726 974.466)" fill="black"/>
<rect x="1452.13" y="1525.83" width="23.2839" height="116.42" rx="11.642" transform="rotate(110 1452.13 1525.83)" fill="#8A8A8E"/>
<rect x="198.419" y="1069.51" width="23.2839" height="116.42" rx="11.642" transform="rotate(110 198.419 1069.51)" fill="#8A8A8E"/>
<rect x="1482.24" y="1403.01" width="23.2839" height="116.42" rx="11.642" transform="rotate(100 1482.24 1403.01)" fill="#8A8A8E"/>
<rect x="168.336" y="1171.33" width="23.2839" height="116.42" rx="11.642" transform="rotate(100 168.336 1171.33)" fill="#8A8A8E"/>
<rect x="1490.56" y="1276.82" width="27.1646" height="116.42" rx="12" transform="rotate(90 1490.56 1276.82)" fill="black"/>
<rect x="156.391" y="1276.82" width="27.1646" height="116.42" rx="12" transform="rotate(90 156.391 1276.82)" fill="black"/>
<rect x="1476.85" y="1151.11" width="23.2838" height="116.42" rx="11.6419" transform="rotate(80 1476.85 1151.11)" fill="#8A8A8E"/>
<rect x="162.945" y="1382.79" width="23.2838" height="116.42" rx="11.6419" transform="rotate(80 162.945 1382.79)" fill="#8A8A8E"/>
<rect x="1441.51" y="1029.69" width="23.2839" height="116.42" rx="11.642" transform="rotate(70 1441.51 1029.69)" fill="#8A8A8E"/>
<rect x="187.801" y="1486.01" width="23.2839" height="116.42" rx="11.642" transform="rotate(70 187.801 1486.01)" fill="#8A8A8E"/>
<rect x="1385.63" y="916.256" width="27.1646" height="116.42" rx="12" transform="rotate(60 1385.63 916.256)" fill="black"/>
<rect x="230.203" y="1583.34" width="27.1646" height="116.42" rx="12" transform="rotate(60 230.203 1583.34)" fill="black"/>
<rect x="1310.9" y="814.245" width="23.2839" height="116.42" rx="11.642" transform="rotate(50 1310.9 814.245)" fill="#8A8A8E"/>
<rect x="288.863" y="1671.83" width="23.2839" height="116.42" rx="11.642" transform="rotate(50 288.863 1671.83)" fill="#8A8A8E"/>
<rect x="1219.58" y="726.761" width="23.2839" height="116.42" rx="11.642" transform="rotate(40 1219.58 726.761)" fill="#8A8A8E"/>
<rect x="361.997" y="1748.79" width="23.2839" height="116.42" rx="11.642" transform="rotate(40 361.997 1748.79)" fill="#8A8A8E"/>
<rect x="1114.47" y="656.461" width="27.1644" height="116.42" rx="12" transform="rotate(30 1114.47 656.461)" fill="black"/>
<rect x="447.385" y="1811.89" width="27.1644" height="116.42" rx="12" transform="rotate(30 447.385 1811.89)" fill="black"/>
<rect x="998.745" y="605.483" width="23.2839" height="116.42" rx="11.642" transform="rotate(20 998.745 605.483)" fill="#8A8A8E"/>
<rect x="542.431" y="1859.19" width="23.2839" height="116.42" rx="11.642" transform="rotate(20 542.431 1859.19)" fill="#8A8A8E"/>
<rect x="875.925" y="575.375" width="23.2838" height="116.42" rx="11.6419" transform="rotate(10 875.925 575.375)" fill="#8A8A8E"/>
<rect x="644.249" y="1889.28" width="23.2838" height="116.42" rx="11.6419" transform="rotate(10 644.249 1889.28)" fill="#8A8A8E"/>
<path d="M1806.7 1089C1795.7 1089 1790.2 1085.33 1790.2 1078C1790.2 1070.67 1795.33 1065.9 1805.6 1063.7L1822.1 1060.4C1836.77 1057.47 1847.77 1050.5 1855.1 1039.5C1862.43 1027.77 1868.67 1011.63 1873.8 991.1L2044.3 303.6C2045.77 296.267 2047.97 291.5 2050.9 289.3C2054.57 287.1 2057.87 286 2060.8 286C2064.47 286 2067.77 287.1 2070.7 289.3C2074.37 291.5 2076.93 296.267 2078.4 303.6L2252.2 1001C2257.33 1021.53 2263.2 1035.83 2269.8 1043.9C2276.4 1051.97 2286.67 1057.47 2300.6 1060.4L2317.1 1063.7C2327.37 1065.9 2332.5 1070.67 2332.5 1078C2332.5 1085.33 2327 1089 2316 1089H2127.9C2117.63 1089 2112.5 1084.97 2112.5 1076.9C2112.5 1068.83 2118.73 1064.43 2131.2 1063.7L2152.1 1061.5C2164.57 1060.03 2172.27 1056 2175.2 1049.4C2178.87 1042.8 2178.87 1031.43 2175.2 1015.3L2133.4 844.8C2129 825.733 2116.9 816.2 2097.1 816.2H1981.6C1962.53 816.2 1950.43 825.733 1945.3 844.8L1907.9 992.2C1896.9 1034 1907.9 1057.1 1940.9 1061.5L1957.4 1063.7C1969.87 1065.9 1976.1 1070.3 1976.1 1076.9C1976.1 1084.97 1970.97 1089 1960.7 1089H1806.7ZM1978.3 783.2H2099.3C2111.03 783.2 2115.8 776.967 2113.6 764.5L2043.2 469.7H2037.7L1964 764.5C1961.8 776.967 1966.57 783.2 1978.3 783.2ZM2456.83 1098.9C2439.97 1098.9 2422 1096.7 2402.93 1092.3C2383.87 1088.63 2368.47 1083.87 2356.73 1078C2350.13 1074.33 2346.83 1068.1 2346.83 1059.3L2343.53 936.1C2343.53 923.633 2348.3 917.4 2357.83 917.4C2365.9 917.4 2371.4 923.267 2374.33 935C2386.8 987.067 2401.83 1022.63 2419.43 1041.7C2437.77 1060.77 2459.77 1070.3 2485.43 1070.3C2506.7 1070.3 2524.3 1062.23 2538.23 1046.1C2552.17 1029.23 2559.13 1006.13 2559.13 976.8C2559.13 947.467 2551.07 921.433 2534.93 898.7C2518.8 875.967 2491.67 851.033 2453.53 823.9C2415.4 798.233 2387.53 772.567 2369.93 746.9C2352.33 720.5 2343.53 691.9 2343.53 661.1C2343.53 619.3 2358.2 585.567 2387.53 559.9C2416.87 534.233 2455.73 521.4 2504.13 521.4C2518.8 521.4 2533.1 523.233 2547.03 526.9C2560.97 529.833 2573.43 534.967 2584.43 542.3C2591.03 546.7 2594.33 552.567 2594.33 559.9L2596.53 680.9C2596.53 691.9 2592.13 697.4 2583.33 697.4C2578.2 697.4 2574.53 695.933 2572.33 693C2570.13 689.333 2568.3 684.933 2566.83 679.8C2552.17 632.133 2537.5 599.133 2522.83 580.8C2508.17 561.733 2490.2 552.2 2468.93 552.2C2449.87 552.2 2434.1 558.8 2421.63 572C2409.17 585.2 2402.93 601.7 2402.93 621.5C2402.93 647.167 2410.63 669.533 2426.03 688.6C2441.43 707.667 2469.3 731.133 2509.63 759C2546.3 785.4 2573.8 814 2592.13 844.8C2611.2 874.867 2620.73 907.867 2620.73 943.8C2620.73 990.733 2605.7 1028.5 2575.63 1057.1C2545.57 1084.97 2505.97 1098.9 2456.83 1098.9ZM2812.81 1098.9C2787.15 1098.9 2765.88 1090.1 2749.01 1072.5C2732.88 1054.17 2724.81 1024.47 2724.81 983.4V572C2724.81 563.2 2720.41 558.8 2711.61 558.8H2679.71C2667.98 558.8 2662.11 554.4 2662.11 545.6C2662.11 539.733 2665.41 534.6 2672.01 530.2C2696.21 513.333 2715.65 495.367 2730.31 476.3C2744.98 456.5 2757.81 429.733 2768.81 396C2773.95 380.6 2780.18 372.9 2787.51 372.9C2795.58 372.9 2799.61 378.767 2799.61 390.5V512.6C2799.61 522.867 2804.75 528 2815.01 528H2886.51C2898.25 528 2904.11 533.133 2904.11 543.4C2904.11 553.667 2898.25 558.8 2886.51 558.8H2815.01C2804.75 558.8 2799.61 563.933 2799.61 574.2V984.5C2799.61 1000.63 2802.18 1013.47 2807.31 1023C2812.45 1031.8 2821.98 1036.2 2835.91 1036.2C2851.31 1036.2 2863.78 1028.5 2873.31 1013.1C2883.58 997.7 2890.18 972.767 2893.11 938.3C2894.58 928.033 2899.35 922.9 2907.41 922.9C2916.21 922.9 2920.61 928.4 2920.61 939.4C2918.41 995.867 2906.68 1036.57 2885.41 1061.5C2864.88 1086.43 2840.68 1098.9 2812.81 1098.9ZM3105.18 598.4C3135.25 547.067 3171.55 521.4 3214.08 521.4C3238.28 521.4 3256.25 528.733 3267.98 543.4C3279.71 557.333 3285.58 573.1 3285.58 590.7C3285.58 604.633 3281.91 616 3274.58 624.8C3267.98 633.6 3257.35 638 3242.68 638C3230.95 638 3222.15 635.433 3216.28 630.3C3211.15 624.433 3206.75 617.833 3203.08 610.5C3200.15 603.167 3196.48 596.933 3192.08 591.8C3187.68 585.933 3180.35 583 3170.08 583C3156.88 583 3144.41 591.067 3132.68 607.2C3120.95 622.6 3111.05 643.5 3102.98 669.9C3095.65 696.3 3091.98 726.367 3091.98 760.1V1015.3C3091.98 1030.7 3094.18 1041.7 3098.58 1048.3C3103.71 1054.9 3113.98 1058.93 3129.38 1060.4L3159.08 1063.7C3167.15 1065.17 3171.18 1069.2 3171.18 1075.8C3171.18 1084.6 3165.68 1089 3154.68 1089H2968.78C2957.78 1089 2952.28 1084.97 2952.28 1076.9C2952.28 1070.3 2957.05 1065.9 2966.58 1063.7L2979.78 1061.5C2995.18 1058.57 3005.08 1054.17 3009.48 1048.3C3014.61 1041.7 3017.18 1030.7 3017.18 1015.3V645.7C3017.18 632.5 3014.98 623.7 3010.58 619.3C3006.91 614.167 2999.95 610.867 2989.68 609.4L2966.58 606.1C2957.05 605.367 2952.28 601.333 2952.28 594C2952.28 588.133 2958.15 584.1 2969.88 581.9C2992.61 578.233 3009.85 572.367 3021.58 564.3C3034.05 556.233 3046.88 546.333 3060.08 534.6C3066.68 528 3072.18 524.7 3076.58 524.7C3083.18 524.7 3086.48 529.1 3086.48 537.9V597.3C3086.48 602.433 3088.68 605.733 3093.08 607.2C3097.48 607.933 3101.51 605 3105.18 598.4ZM3509.28 1098.9C3471.88 1098.9 3438.14 1086.43 3408.08 1061.5C3378.74 1035.83 3355.28 1001 3337.68 957C3320.08 913 3311.28 863.867 3311.28 809.6C3311.28 755.333 3320.08 706.567 3337.68 663.3C3355.28 620.033 3379.11 585.567 3409.18 559.9C3439.24 534.233 3472.61 521.4 3509.28 521.4C3546.68 521.4 3580.04 534.233 3609.38 559.9C3639.44 585.567 3663.28 620.033 3680.88 663.3C3698.48 706.567 3707.28 755.333 3707.28 809.6C3707.28 863.867 3698.48 913 3680.88 957C3664.01 1001 3640.54 1035.83 3610.48 1061.5C3580.41 1086.43 3546.68 1098.9 3509.28 1098.9ZM3509.28 1071.4C3585.54 1071.4 3623.68 984.133 3623.68 809.6C3623.68 635.8 3585.54 548.9 3509.28 548.9C3433.01 548.9 3394.88 635.8 3394.88 809.6C3394.88 984.133 3433.01 1071.4 3509.28 1071.4ZM3757 1089C3748.2 1089 3743.8 1084.97 3743.8 1076.9C3743.8 1069.57 3747.83 1065.17 3755.9 1063.7L3771.3 1061.5C3786.7 1059.3 3798.07 1054.9 3805.4 1048.3C3812.73 1041.7 3816.4 1030.7 3816.4 1015.3V385C3816.4 371.8 3814.2 362.633 3809.8 357.5C3806.13 352.367 3799.17 349.433 3788.9 348.7L3763.6 345.4C3755.53 343.933 3751.5 339.533 3751.5 332.2C3751.5 324.867 3755.53 320.467 3763.6 319C3784.13 314.6 3801.73 309.467 3816.4 303.6C3831.07 297.733 3843.17 291.867 3852.7 286C3864.43 278.667 3873.23 275 3879.1 275C3887.17 275 3891.2 280.867 3891.2 292.6V1015.3C3891.2 1030.7 3893.4 1041.7 3897.8 1048.3C3902.93 1054.17 3913.2 1058.2 3928.6 1060.4L3953.9 1063.7C3961.97 1065.17 3966 1069.57 3966 1076.9C3966 1084.97 3961.6 1089 3952.8 1089H3757ZM4108.7 1098.9C4077.9 1098.9 4052.6 1089.37 4032.8 1070.3C4013 1050.5 4003.1 1024.47 4003.1 992.2C4003.1 960.667 4013 930.967 4032.8 903.1C4052.6 874.5 4079.73 848.833 4114.2 826.1C4148.67 803.367 4187.9 785.033 4231.9 771.1C4241.43 768.167 4246.2 761.933 4246.2 752.4V652.3C4246.2 617.1 4240.7 592.167 4229.7 577.5C4218.7 562.1 4203.67 554.4 4184.6 554.4C4166.27 554.4 4149.4 562.833 4134 579.7C4119.33 595.833 4108.7 623.333 4102.1 662.2C4098.43 685.667 4090.37 702.9 4077.9 713.9C4066.17 724.167 4054.07 729.3 4041.6 729.3C4021.07 729.3 4010.8 719.033 4010.8 698.5C4010.8 677.233 4016.67 656.333 4028.4 635.8C4040.87 614.533 4057 595.467 4076.8 578.6C4096.6 561 4118.23 547.067 4141.7 536.8C4165.17 526.533 4188.63 521.4 4212.1 521.4C4284.7 521.4 4321 563.567 4321 647.9V984.5C4321 1015.3 4328.7 1030.7 4344.1 1030.7C4353.63 1030.7 4362.43 1024.47 4370.5 1012C4378.57 998.8 4382.6 976.8 4382.6 946C4382.6 934.267 4387.37 928.4 4396.9 928.4C4405.7 928.4 4410.1 934.633 4410.1 947.1C4410.1 1000.63 4400.57 1039.5 4381.5 1063.7C4363.17 1087.17 4342.27 1098.9 4318.8 1098.9C4301.2 1098.9 4287.27 1091.93 4277 1078C4266.73 1063.33 4259.77 1046.1 4256.1 1026.3C4255.37 1018.97 4252.07 1015.3 4246.2 1015.3C4241.07 1014.57 4235.93 1017.87 4230.8 1025.2C4213.2 1049.4 4195.23 1067.73 4176.9 1080.2C4158.57 1092.67 4135.83 1098.9 4108.7 1098.9ZM4138.4 1048.3C4157.47 1048.3 4175.07 1041.7 4191.2 1028.5C4207.33 1014.57 4220.53 996.233 4230.8 973.5C4241.07 950.767 4246.2 925.1 4246.2 896.5V816.2C4246.2 802.267 4238.5 798.233 4223.1 804.1C4178.37 820.233 4143.53 842.6 4118.6 871.2C4094.4 899.067 4082.3 932.8 4082.3 972.4C4082.3 1023 4101 1048.3 4138.4 1048.3ZM4642.65 1098.9C4612.59 1098.9 4583.62 1089.37 4555.75 1070.3C4539.62 1059.3 4524.95 1062.23 4511.75 1079.1C4504.42 1087.17 4498.92 1092.3 4495.25 1094.5C4491.59 1097.43 4487.92 1098.9 4484.25 1098.9C4476.19 1098.9 4473.25 1093.77 4475.45 1083.5C4478.39 1066.63 4480.59 1045 4482.05 1018.6C4483.52 992.2 4484.25 957 4484.25 913V385C4484.25 371.8 4482.05 363 4477.65 358.6C4473.99 353.467 4467.02 350.167 4456.75 348.7L4433.65 345.4C4425.59 343.933 4421.55 339.533 4421.55 332.2C4421.55 324.867 4425.59 320.467 4433.65 319C4454.19 314.6 4471.42 309.467 4485.35 303.6C4499.29 297.733 4511.02 291.867 4520.55 286C4532.29 278.667 4541.09 275 4546.95 275C4555.02 275 4559.05 280.867 4559.05 292.6V564.3C4559.05 570.167 4561.25 574.2 4565.65 576.4C4570.79 577.867 4576.29 575.667 4582.15 569.8C4613.69 537.533 4648.15 521.4 4685.55 521.4C4719.29 521.4 4748.99 532.767 4774.65 555.5C4801.05 577.5 4821.59 608.3 4836.25 647.9C4851.65 687.5 4859.35 734.067 4859.35 787.6C4859.35 848.467 4849.82 902.367 4830.75 949.3C4811.69 996.233 4785.65 1032.9 4752.65 1059.3C4720.39 1085.7 4683.72 1098.9 4642.65 1098.9ZM4640.45 1071.4C4681.52 1071.4 4714.52 1047.2 4739.45 998.8C4765.12 950.4 4777.95 885.133 4777.95 803C4777.95 727.467 4766.95 669.9 4744.95 630.3C4722.95 590.7 4691.79 570.9 4651.45 570.9C4626.52 570.9 4604.89 581.167 4586.55 601.7C4568.22 622.233 4559.05 650.833 4559.05 687.5V964.7C4559.05 997.7 4566.39 1023.73 4581.05 1042.8C4596.45 1061.87 4616.25 1071.4 4640.45 1071.4ZM5114.95 1098.9C5079.75 1098.9 5048.22 1087.17 5020.35 1063.7C4992.48 1040.23 4970.12 1007.23 4953.25 964.7C4937.12 921.433 4929.05 871.567 4929.05 815.1C4929.05 757.167 4937.48 706.2 4954.35 662.2C4971.22 618.2 4994.32 583.733 5023.65 558.8C5052.98 533.867 5085.62 521.4 5121.55 521.4C5164.82 521.4 5199.65 539.367 5226.05 575.3C5253.18 610.5 5266.75 668.067 5266.75 748C5266.75 772.2 5257.58 784.3 5239.25 784.3H5030.25C5015.58 784.3 5008.25 792.733 5008.25 809.6C5008.25 887.333 5019.62 945.633 5042.35 984.5C5065.08 1023.37 5094.05 1042.8 5129.25 1042.8C5157.12 1042.8 5179.85 1032.9 5197.45 1013.1C5215.05 993.3 5229.35 959.933 5240.35 913C5242.55 904.933 5247.32 900.9 5254.65 900.9C5263.45 900.9 5266.75 908.233 5264.55 922.9C5252.82 988.167 5234.12 1034 5208.45 1060.4C5182.78 1086.07 5151.62 1098.9 5114.95 1098.9ZM5026.95 756.8H5138.05C5173.25 756.8 5190.85 738.467 5190.85 701.8C5190.85 654.133 5184.98 616.733 5173.25 589.6C5161.52 562.467 5143.92 548.9 5120.45 548.9C5091.85 548.9 5067.65 565.4 5047.85 598.4C5028.78 631.4 5016.32 678.333 5010.45 739.2C5008.98 750.933 5014.48 756.8 5026.95 756.8Z" fill="white"/>
<path d="M1963.8 1955C1919.4 1955 1884 1941.2 1857.6 1913.6C1831.2 1885.4 1818 1847.6 1818 1800.2V1682.3L1878.3 1650.8V1793C1878.3 1863.8 1911.3 1899.2 1977.3 1899.2H2278.8C2344.8 1899.2 2377.8 1863.8 2377.8 1793V1601.3L2438.1 1569.8V1800.2C2438.1 1851.2 2422.5 1890.8 2391.3 1919C2364.3 1943 2328.9 1955 2285.1 1955H1963.8ZM2110.5 2123.3C2085.9 2123.3 2073.6 2110.7 2073.6 2085.5C2073.6 2061.5 2085.9 2049.5 2110.5 2049.5C2133.9 2049.5 2145.6 2061.5 2145.6 2085.5C2145.6 2110.7 2133.9 2123.3 2110.5 2123.3ZM2928.73 1406L2988.13 1374.5V1793.9C2988.13 1844.9 2973.13 1885.1 2943.13 1914.5C2915.53 1941.5 2878.63 1955 2832.43 1955H2537.23L2566.03 1899.2H2703.73V1523L2763.13 1491.5V1899.2H2826.13C2894.53 1899.2 2928.73 1863.8 2928.73 1793V1406ZM3368.22 1899.2H3399.72V1955H3361.02C3323.82 1955 3292.92 1946 3268.32 1928C3263.52 2027.6 3223.32 2090.6 3147.72 2117C3128.52 2123.6 3108.12 2126.9 3086.52 2126.9C3051.72 2126.9 3018.12 2118.5 2985.72 2101.7V2048.6C3016.32 2065.4 3047.52 2073.8 3079.32 2073.8C3104.52 2073.8 3126.72 2068.1 3145.92 2056.7C3187.92 2031.5 3208.92 1984.4 3208.92 1915.4V1601.3L3268.32 1569.8V1570.7L3269.22 1569.8V1796.6C3269.22 1865 3302.22 1899.2 3368.22 1899.2ZM4210.1 1899.2V1955H4171.4C4121 1955 4082 1938.8 4054.4 1906.4C4032.8 1938.8 3998 1955 3950 1955H3382.1V1899.2H3534.2V1406L3590 1374.5V1752.5C3660.2 1623.5 3753.2 1559 3869 1559C3936.2 1559 3989.6 1582.1 4029.2 1628.3C4062.8 1667.9 4079.6 1716.8 4079.6 1775V1798.4C4079.6 1865.6 4112.9 1899.2 4179.5 1899.2H4210.1ZM4019.3 1775C4019.3 1724.6 4003.4 1684.1 3971.6 1653.5C3944.6 1627.1 3910.7 1613.9 3869.9 1613.9C3799.7 1613.9 3737.3 1647.8 3682.7 1715.6C3641.3 1766.6 3610.7 1827.8 3590.9 1899.2H3943.7C3972.5 1899.2 3992.3 1892.6 4003.1 1879.4C4013.9 1865.6 4019.3 1840.7 4019.3 1804.7V1775ZM4192.45 1955V1899.2H4247.35C4313.95 1899.2 4347.25 1865 4347.25 1796.6V1667L4407.55 1635.5V1796.6C4407.55 1865 4440.55 1899.2 4506.55 1899.2H4539.85C4605.85 1899.2 4638.85 1865 4638.85 1796.6V1634.6L4699.15 1602.2V1796.6C4699.15 1865 4732.45 1899.2 4799.05 1899.2H4831.45C4898.05 1899.2 4931.35 1865 4931.35 1796.6V1601.3L4991.65 1569.8V1798.4C4991.65 1848.2 4976.95 1887.2 4947.55 1915.4C4921.15 1941.2 4885.45 1954.4 4840.45 1955H4790.95C4735.15 1955 4694.65 1935.2 4669.45 1895.6C4643.65 1935.2 4603.45 1955 4548.85 1955H4499.35C4443.55 1955 4402.75 1935.2 4376.95 1895.6C4351.75 1935.2 4311.25 1955 4255.45 1955H4192.45ZM5103.95 1361.9L5121.05 1330.4H5143.55C5137.55 1320.2 5134.55 1309.4 5134.55 1298C5134.55 1281.2 5140.85 1266.5 5153.45 1253.9C5166.65 1241.3 5181.65 1235 5198.45 1235C5211.65 1235 5224.55 1239.2 5237.15 1247.6V1280.9C5225.75 1272.5 5214.35 1268.3 5202.95 1268.3C5193.35 1268.3 5184.95 1271.3 5177.75 1277.3C5171.15 1283.3 5167.85 1290.5 5167.85 1298.9C5167.85 1309.7 5172.35 1320.2 5181.35 1330.4H5259.65L5242.55 1361.9H5103.95ZM5153.45 1955V1442L5213.75 1410.5V1955H5153.45Z" fill="white"/>
</svg>
