<svg width="6569" height="2208" viewBox="0 0 6569 2208" fill="none" xmlns="http://www.w3.org/2000/svg">
<path d="M852.192 444.423H680.667C669.951 444.423 661.264 453.11 661.264 463.826V515.753C661.264 528.485 651.716 539.126 639.123 540.998C330.865 586.815 0 870.982 0 1294.67C0 1716.25 341.752 2058 763.325 2058C1184.9 2058 1526.65 1715.73 1526.65 1294.67C1526.65 882.951 1210.51 595.905 893.162 542.255C880.829 540.17 871.595 529.639 871.595 517.13V463.826C871.595 453.11 862.908 444.423 852.192 444.423Z" fill="white"/>
<path d="M766.818 140C825.271 140 872.551 187.223 872.551 245.346C872.551 303.468 825.271 350.69 766.818 350.69C708.365 350.69 661.085 303.468 661.084 245.346C661.084 187.223 708.365 140 766.818 140Z" stroke="white" stroke-width="40"/>
<rect x="731.892" y="324.899" width="69.8518" height="158.331" rx="12" fill="white"/>
<path d="M763.4 1152.25C686.307 1152.25 623.811 1214.75 623.811 1291.84C623.811 1298.17 624.231 1304.39 625.046 1310.49L242.153 1310.49L297.258 1449.51H759.444H1229.47L1284.57 1310.49H901.754C902.569 1304.39 902.989 1298.17 902.989 1291.84C902.989 1214.75 840.493 1152.25 763.4 1152.25Z" fill="black"/>
<circle cx="763.714" cy="1291.18" r="54.3292" fill="white"/>
<path d="M617.734 977.058L716.985 1141.16C679.981 1153.36 662.552 1163.96 636.628 1189.76L537.377 1025.66L617.734 977.058Z" fill="black"/>
<path d="M917.294 1631.17C947.344 1612.12 966.284 1600.86 997.651 1582.57L927.796 1467.07L818.043 1467.07L917.294 1631.17Z" fill="black"/>
<rect x="749.743" y="567.052" width="27.1646" height="116.42" rx="12" fill="black"/>
<rect x="749.743" y="1901.22" width="27.1646" height="116.42" rx="12" fill="black"/>
<rect x="906.499" y="2003.93" width="23.2839" height="116.42" rx="11.642" transform="rotate(170 906.499 2003.93)" fill="#8A8A8E"/>
<rect x="674.823" y="690.027" width="23.2839" height="116.42" rx="11.642" transform="rotate(170 674.823 690.027)" fill="#8A8A8E"/>
<rect x="1027.92" y="1968.59" width="23.2839" height="116.42" rx="11.642" transform="rotate(160 1027.92 1968.59)" fill="#8A8A8E"/>
<rect x="571.604" y="714.882" width="23.2839" height="116.42" rx="11.642" transform="rotate(160 571.604 714.882)" fill="#8A8A8E"/>
<rect x="1141.36" y="1912.71" width="27.1646" height="116.42" rx="12" transform="rotate(150 1141.36 1912.71)" fill="black"/>
<rect x="474.271" y="757.283" width="27.1646" height="116.42" rx="12" transform="rotate(150 474.271 757.283)" fill="black"/>
<rect x="1243.37" y="1837.98" width="23.2839" height="116.42" rx="11.642" transform="rotate(140 1243.37 1837.98)" fill="#8A8A8E"/>
<rect x="385.779" y="815.943" width="23.2839" height="116.42" rx="11.642" transform="rotate(140 385.779 815.943)" fill="#8A8A8E"/>
<rect x="1330.85" y="1746.67" width="23.2839" height="116.42" rx="11.642" transform="rotate(130 1330.85 1746.67)" fill="#8A8A8E"/>
<rect x="308.818" y="889.078" width="23.2839" height="116.42" rx="11.642" transform="rotate(130 308.818 889.078)" fill="#8A8A8E"/>
<rect x="1401.15" y="1641.55" width="27.1646" height="116.42" rx="12" transform="rotate(120 1401.15 1641.55)" fill="black"/>
<rect x="245.726" y="974.466" width="27.1646" height="116.42" rx="12" transform="rotate(120 245.726 974.466)" fill="black"/>
<rect x="1452.13" y="1525.83" width="23.2839" height="116.42" rx="11.642" transform="rotate(110 1452.13 1525.83)" fill="#8A8A8E"/>
<rect x="198.419" y="1069.51" width="23.2839" height="116.42" rx="11.642" transform="rotate(110 198.419 1069.51)" fill="#8A8A8E"/>
<rect x="1482.24" y="1403.01" width="23.2839" height="116.42" rx="11.642" transform="rotate(100 1482.24 1403.01)" fill="#8A8A8E"/>
<rect x="168.337" y="1171.33" width="23.2839" height="116.42" rx="11.642" transform="rotate(100 168.337 1171.33)" fill="#8A8A8E"/>
<rect x="1490.56" y="1276.82" width="27.1646" height="116.42" rx="12" transform="rotate(90 1490.56 1276.82)" fill="black"/>
<rect x="156.391" y="1276.82" width="27.1646" height="116.42" rx="12" transform="rotate(90 156.391 1276.82)" fill="black"/>
<rect x="1476.85" y="1151.11" width="23.2838" height="116.42" rx="11.6419" transform="rotate(80 1476.85 1151.11)" fill="#8A8A8E"/>
<rect x="162.946" y="1382.79" width="23.2838" height="116.42" rx="11.6419" transform="rotate(80 162.946 1382.79)" fill="#8A8A8E"/>
<rect x="1441.51" y="1029.69" width="23.2839" height="116.42" rx="11.642" transform="rotate(70 1441.51 1029.69)" fill="#8A8A8E"/>
<rect x="187.801" y="1486.01" width="23.2839" height="116.42" rx="11.642" transform="rotate(70 187.801 1486.01)" fill="#8A8A8E"/>
<rect x="1385.63" y="916.256" width="27.1646" height="116.42" rx="12" transform="rotate(60 1385.63 916.256)" fill="black"/>
<rect x="230.204" y="1583.34" width="27.1646" height="116.42" rx="12" transform="rotate(60 230.204 1583.34)" fill="black"/>
<rect x="1310.9" y="814.244" width="23.2839" height="116.42" rx="11.642" transform="rotate(50 1310.9 814.244)" fill="#8A8A8E"/>
<rect x="288.863" y="1671.83" width="23.2839" height="116.42" rx="11.642" transform="rotate(50 288.863 1671.83)" fill="#8A8A8E"/>
<rect x="1219.59" y="726.76" width="23.2839" height="116.42" rx="11.642" transform="rotate(40 1219.59 726.76)" fill="#8A8A8E"/>
<rect x="361.998" y="1748.79" width="23.2839" height="116.42" rx="11.642" transform="rotate(40 361.998 1748.79)" fill="#8A8A8E"/>
<rect x="1114.47" y="656.461" width="27.1644" height="116.42" rx="12" transform="rotate(30 1114.47 656.461)" fill="black"/>
<rect x="447.386" y="1811.89" width="27.1644" height="116.42" rx="12" transform="rotate(30 447.386 1811.89)" fill="black"/>
<rect x="998.745" y="605.483" width="23.2839" height="116.42" rx="11.642" transform="rotate(20 998.745 605.483)" fill="#8A8A8E"/>
<rect x="542.431" y="1859.19" width="23.2839" height="116.42" rx="11.642" transform="rotate(20 542.431 1859.19)" fill="#8A8A8E"/>
<rect x="875.925" y="575.375" width="23.2838" height="116.42" rx="11.6419" transform="rotate(10 875.925 575.375)" fill="#8A8A8E"/>
<rect x="644.249" y="1889.28" width="23.2838" height="116.42" rx="11.6419" transform="rotate(10 644.249 1889.28)" fill="#8A8A8E"/>
<path d="M1789.1 1100L2103.7 330H2236.8L2550.3 1100H2383.1L2330.3 953.7H2009.1L1956.3 1100H1789.1ZM2142.2 610.5L2059.7 820.6H2279.7L2197.2 610.5C2186.2 581.167 2177.03 551.833 2169.7 522.5C2162.37 554.033 2153.2 583.367 2142.2 610.5ZM2769.53 1114.3C2673.46 1114.3 2594.26 1080.93 2531.93 1014.2L2632.03 922.9C2673.83 969.833 2718.56 993.3 2766.23 993.3C2791.89 993.3 2811.33 987.8 2824.53 976.8C2838.46 965.067 2845.43 950.767 2845.43 933.9C2845.43 923.633 2842.86 914.833 2837.73 907.5C2833.33 900.167 2823.43 893.2 2808.03 886.6C2793.36 880 2770.99 873.4 2740.93 866.8C2689.59 854.333 2651.46 838.933 2626.53 820.6C2601.59 802.267 2585.09 781.733 2577.03 759C2568.96 736.267 2564.93 712.8 2564.93 688.6C2564.93 638.733 2583.63 597.3 2621.03 564.3C2659.16 530.567 2711.59 513.7 2778.33 513.7C2824.53 513.7 2864.13 520.667 2897.13 534.6C2930.13 548.533 2961.29 574.567 2990.63 612.7L2882.83 695.2C2868.89 673.2 2853.13 657.433 2835.53 647.9C2818.66 638.367 2800.69 633.6 2781.63 633.6C2761.09 633.6 2743.86 637.633 2729.93 645.7C2716.73 653.767 2710.13 666.6 2710.13 684.2C2710.13 693.733 2714.53 703.267 2723.33 712.8C2732.13 721.6 2753.39 730.4 2787.13 739.2C2842.86 753.133 2885.39 769.633 2914.73 788.7C2944.06 807.033 2964.23 827.933 2975.23 851.4C2986.23 874.867 2991.73 900.9 2991.73 929.5C2991.73 964.7 2981.83 996.233 2962.03 1024.1C2942.96 1051.97 2916.56 1073.97 2882.83 1090.1C2849.83 1106.23 2812.06 1114.3 2769.53 1114.3ZM3256.64 1100C3200.17 1100 3156.9 1086.07 3126.84 1058.2C3096.77 1030.33 3081.74 985.233 3081.74 922.9V654.5H3001.44V528H3081.74V412.5L3230.24 397.1V528H3351.24V654.5H3230.24V915.2C3230.24 950.4 3245.64 968 3276.44 968H3338.04V1100H3256.64ZM3400.88 1100V528H3544.98V636.9C3554.51 595.833 3573.94 564.667 3603.28 543.4C3632.61 521.4 3672.21 511.867 3722.08 514.8V654.5H3701.18C3658.64 654.5 3622.71 668.067 3593.38 695.2C3564.04 722.333 3549.38 759.733 3549.38 807.4V1100H3400.88ZM4026.25 1114.3C3967.58 1114.3 3915.15 1100.73 3868.95 1073.6C3822.75 1046.47 3786.45 1010.53 3760.05 965.8C3734.38 920.333 3721.55 870.1 3721.55 815.1C3721.55 760.1 3734.38 709.867 3760.05 664.4C3786.45 618.933 3822.75 582.633 3868.95 555.5C3915.15 528.367 3967.58 514.8 4026.25 514.8C4085.65 514.8 4138.08 528.367 4183.55 555.5C4229.75 582.633 4265.68 618.933 4291.35 664.4C4317.75 709.867 4330.95 760.1 4330.95 815.1C4330.95 870.1 4317.75 920.333 4291.35 965.8C4265.68 1010.53 4229.75 1046.47 4183.55 1073.6C4138.08 1100.73 4085.65 1114.3 4026.25 1114.3ZM4026.25 979C4057.78 979 4085.28 971.667 4108.75 957C4132.22 941.6 4150.18 921.433 4162.65 896.5C4175.85 871.567 4182.45 844.433 4182.45 815.1C4182.45 785.033 4175.85 757.533 4162.65 732.6C4150.18 707.667 4132.22 687.867 4108.75 673.2C4085.28 657.8 4057.78 650.1 4026.25 650.1C3994.72 650.1 3967.22 657.8 3943.75 673.2C3920.28 687.867 3901.95 707.667 3888.75 732.6C3876.28 757.533 3870.05 785.033 3870.05 815.1C3870.05 844.433 3876.28 871.567 3888.75 896.5C3901.95 921.433 3920.28 941.6 3943.75 957C3967.22 971.667 3994.72 979 4026.25 979ZM4396.68 1100V297H4545.18V1100H4396.68ZM4893.7 1114.3C4841.64 1114.3 4793.97 1101.1 4750.7 1074.7C4708.17 1047.57 4674.07 1011.63 4648.4 966.9C4623.47 921.433 4611 871.2 4611 816.2C4611 775.133 4618.34 736.633 4633 700.7C4647.67 664.033 4667.84 632.133 4693.5 605C4719.17 577.133 4748.87 555.5 4782.6 540.1C4817.07 523.967 4854.1 515.9 4893.7 515.9C4943.57 515.9 4982.44 525.433 5010.3 544.5C5038.17 562.833 5059.8 587.4 5075.2 618.2V528H5222.6V1100H5078.5V1006.5C5063.1 1038.77 5041.1 1064.8 5012.5 1084.6C4984.64 1104.4 4945.04 1114.3 4893.7 1114.3ZM4917.9 980.1C4950.9 980.1 4979.14 972.767 5002.6 958.1C5026.8 942.7 5045.5 922.533 5058.7 897.6C5071.9 872.667 5078.5 845.533 5078.5 816.2C5078.5 786.133 5071.9 758.633 5058.7 733.7C5045.5 708.767 5026.8 688.6 5002.6 673.2C4979.14 657.8 4950.9 650.1 4917.9 650.1C4886.37 650.1 4858.5 657.8 4834.3 673.2C4810.84 687.867 4792.5 707.667 4779.3 732.6C4766.1 757.533 4759.5 785.033 4759.5 815.1C4759.5 843.7 4766.1 870.833 4779.3 896.5C4792.5 921.433 4810.84 941.6 4834.3 957C4858.5 972.4 4886.37 980.1 4917.9 980.1ZM5639.74 1114.3C5588.4 1114.3 5548.44 1104.4 5519.84 1084.6C5491.97 1064.8 5470.34 1038.77 5454.94 1006.5V1100H5310.84V297H5459.34V616C5474.74 585.933 5496.37 561.733 5524.24 543.4C5552.1 525.067 5590.6 515.9 5639.74 515.9C5679.34 515.9 5716 523.967 5749.74 540.1C5784.2 555.5 5814.27 577.133 5839.94 605C5865.6 632.133 5885.77 664.033 5900.44 700.7C5915.1 736.633 5922.44 775.133 5922.44 816.2C5922.44 871.2 5909.6 921.433 5883.94 966.9C5859 1011.63 5825.27 1047.57 5782.74 1074.7C5740.2 1101.1 5692.54 1114.3 5639.74 1114.3ZM5615.54 980.1C5647.07 980.1 5674.57 972.4 5698.04 957C5722.24 941.6 5740.94 921.433 5754.14 896.5C5767.34 870.833 5773.94 843.7 5773.94 815.1C5773.94 785.033 5767.34 757.533 5754.14 732.6C5740.94 707.667 5722.24 687.867 5698.04 673.2C5674.57 657.8 5647.07 650.1 5615.54 650.1C5583.27 650.1 5555.04 657.8 5530.84 673.2C5506.64 688.6 5487.94 708.767 5474.74 733.7C5461.54 758.633 5454.94 786.133 5454.94 816.2C5454.94 845.533 5461.54 872.667 5474.74 897.6C5487.94 922.533 5506.64 942.7 5530.84 958.1C5555.04 972.767 5583.27 980.1 5615.54 980.1ZM6257.2 1114.3C6198.53 1114.3 6146.83 1100.73 6102.1 1073.6C6057.36 1046.47 6022.53 1010.53 5997.6 965.8C5973.4 920.333 5961.3 870.1 5961.3 815.1C5961.3 760.1 5974.13 709.867 5999.8 664.4C6025.46 618.2 6060.3 581.533 6104.3 554.4C6149.03 527.267 6200 513.7 6257.2 513.7C6314.4 513.7 6364.63 527.267 6407.9 554.4C6451.9 581.533 6486 618.2 6510.2 664.4C6535.13 709.867 6547.6 760.1 6547.6 815.1C6547.6 823.167 6547.23 831.6 6546.5 840.4C6545.76 849.2 6544.66 858.367 6543.2 867.9H6115.3C6123.36 901.633 6139.5 929.133 6163.7 950.4C6188.63 971.667 6219.8 982.3 6257.2 982.3C6289.46 982.3 6317.33 974.967 6340.8 960.3C6365 945.633 6383.7 927.3 6396.9 905.3L6512.4 992.2C6489.66 1028.13 6455.56 1057.47 6410.1 1080.2C6364.63 1102.93 6313.66 1114.3 6257.2 1114.3ZM6255 641.3C6219.8 641.3 6189.73 651.933 6164.8 673.2C6139.86 694.467 6123.36 722.333 6115.3 756.8H6398C6389.93 725.267 6373.06 698.133 6347.4 675.4C6322.46 652.667 6291.66 641.3 6255 641.3Z" fill="white"/>
<path d="M2459.8 1590.3H2586.7V1911.6C2586.7 1961.1 2545.3 2002.5 2495.8 2002.5H2002.6C1896.4 2002.5 1810 1916.1 1810 1809.9C1810 1703.7 1896.4 1617.3 2002.6 1617.3H2030.5V1743.3H2004.4C1966.6 1743.3 1936 1773.9 1936 1811.7C1936 1849.5 1966.6 1880.1 2004.4 1880.1H2459.8V1590.3ZM2249.2 2034C2283.4 2034 2312.2 2061.9 2312.2 2097C2312.2 2132.1 2283.4 2160 2249.2 2160C2214.1 2160 2186.2 2132.1 2186.2 2097C2186.2 2061.9 2214.1 2034 2249.2 2034Z" fill="white"/>
<path d="M3005.88 1422H3131.88V1832.4C3131.88 1926.9 3055.38 2002.5 2961.78 2002.5H2672.88V1881H2963.58C2986.98 1881 3005.88 1862.1 3005.88 1838.7V1422ZM2756.58 1467.9H2882.58L2923.08 1836.9H2797.08L2756.58 1467.9Z" fill="white"/>
<path d="M3464.38 1881H3592.18V2002.5H3464.38C3462.58 2058.3 3441.88 2106 3402.28 2145.6C3360.88 2187 3310.48 2207.7 3251.98 2207.7H3175.48V2098.8H3248.38C3272.68 2098.8 3293.38 2089.8 3310.48 2072.7C3327.58 2055.6 3335.68 2035.8 3335.68 2011.5V1594.8H3464.38V1881Z" fill="white"/>
<path d="M4223.91 1881V1815.3C4223.91 1758.6 4178.01 1711.8 4121.31 1711.8H4108.71C4008.81 1711.8 3917.01 1765.8 3867.51 1852.2L3851.31 1881H4223.91ZM4350.81 1881H4453.41V2002.5H3811.71C3807 2002.5 3804 2002.5 3799.5 2002.5C3795.5 2002.5 3779.5 2002.5 3778 2002.5C3778 2002.5 3760 2002.5 3767.5 2002.5C3755.5 2002.5 3751 2002.5 3738.81 2002.5H3565.11V1881H3695.61V1421.1H3824.31V1710.9C3887.31 1634.4 3980.91 1590.3 4079.01 1590.3H4137.51C4255.41 1590.3 4350.81 1685.7 4350.81 1802.7V1881Z" fill="white"/>
<rect x="4453" y="1881" width="1008" height="121.5" fill="white"/>
<path d="M6121.6 1593.9H6251.2V1843.2C6251.2 1931.4 6179.2 2002.5 6091 2002.5H6037C5990.2 2002.5 5948.8 1983.6 5929.9 1964.7C5911.9 1983.6 5869.6 2002.5 5822.8 2002.5H5461V1881H5608.6V1594.8H5737.3V1881H5825.5C5848 1881 5866.9 1862.1 5866.9 1838.7V1593.9H5992.9V1831.5C5992.9 1834.2 5992.9 1836 5992.9 1838.7C5992.9 1862.1 6011.8 1881 6035.2 1881H6081.1C6103.6 1881 6121.6 1862.1 6121.6 1839.6V1593.9Z" fill="white"/>
<path d="M6342.58 1422H6468.58V2002.5H6342.58V1422ZM6485.68 1322.1H6400.18C6392.98 1319.4 6385.78 1308.6 6385.78 1296.9C6385.78 1281.6 6397.48 1269 6411.88 1269C6425.38 1269 6436.18 1278.9 6438.88 1293.3L6481.18 1264.5C6469.48 1236.6 6442.48 1216.8 6411.88 1216.8C6370.48 1216.8 6337.18 1252.8 6337.18 1296.9C6337.18 1308.6 6338.98 1319.4 6340.78 1322.1H6314.68L6306.58 1374.3H6495.58L6485.68 1322.1Z" fill="white"/>
</svg>
