<svg width="4346" height="4997" viewBox="0 0 4346 4997" fill="none" xmlns="http://www.w3.org/2000/svg">
<path d="M2298 418H2077C2063.19 418 2052 429.193 2052 443V516.355C2052 529.087 2042.48 539.736 2029.87 541.507C1630.89 597.536 1200 964.664 1200 1513.5C1200 2056.67 1640.33 2497 2183.5 2497C2726.67 2497 3167 2056 3167 1513.5C3167 980.328 2755.52 609.428 2344.57 543.022C2332.22 541.027 2323 530.488 2323 517.979V443C2323 429.193 2311.81 418 2298 418Z" fill="white"/>
<path d="M2188 20C2266.48 20 2330 83.41 2330 161.5C2330 239.59 2266.48 303 2188 303C2109.52 303 2046 239.59 2046 161.5C2046 83.41 2109.52 20 2188 20Z" stroke="white" stroke-width="40"/>
<rect x="2143" y="264" width="90" height="204" rx="12" fill="white"/>
<path d="M2183.6 1330C2084.27 1330 2003.74 1410.52 2003.74 1509.85C2003.74 1518 2004.29 1526.02 2005.33 1533.88H1380L1464.71 1713H2178.5H2901.29L2986 1533.88H2361.86C2362.91 1526.02 2363.45 1518 2363.45 1509.85C2363.45 1410.52 2282.93 1330 2183.6 1330Z" fill="black"/>
<circle cx="2184" cy="1509" r="70" fill="white"/>
<path d="M1995.92 1104.27L2123.79 1315.7C2076.12 1331.43 2053.66 1345.08 2020.26 1378.32L1892.38 1166.89L1995.92 1104.27Z" fill="black"/>
<path d="M2381.88 1947.05C2420.6 1922.51 2445 1908 2485.41 1884.43L2395.41 1735.62L2254 1735.62L2381.88 1947.05Z" fill="black"/>
<path d="M-1.2517e-06 3497L286 2797H407L692 3497H540L492 3364H200L152 3497H-1.2517e-06ZM321 3052L246 3243H446L371 3052C361 3025.33 352.667 2998.67 346 2972C339.333 3000.67 331 3027.33 321 3052ZM891.297 3510C803.964 3510 731.964 3479.67 675.297 3419L766.297 3336C804.297 3378.67 844.964 3400 888.297 3400C911.63 3400 929.297 3395 941.297 3385C953.964 3374.33 960.297 3361.33 960.297 3346C960.297 3336.67 957.964 3328.67 953.297 3322C949.297 3315.33 940.297 3309 926.297 3303C912.964 3297 892.63 3291 865.297 3285C818.63 3273.67 783.964 3259.67 761.297 3243C738.63 3226.33 723.63 3207.67 716.297 3187C708.964 3166.33 705.297 3145 705.297 3123C705.297 3077.67 722.297 3040 756.297 3010C790.964 2979.33 838.63 2964 899.297 2964C941.297 2964 977.297 2970.33 1007.3 2983C1037.3 2995.67 1065.63 3019.33 1092.3 3054L994.297 3129C981.63 3109 967.297 3094.67 951.297 3086C935.964 3077.33 919.63 3073 902.297 3073C883.63 3073 867.964 3076.67 855.297 3084C843.297 3091.33 837.297 3103 837.297 3119C837.297 3127.67 841.297 3136.33 849.297 3145C857.297 3153 876.63 3161 907.297 3169C957.964 3181.67 996.63 3196.67 1023.3 3214C1049.96 3230.67 1068.3 3249.67 1078.3 3271C1088.3 3292.33 1093.3 3316 1093.3 3342C1093.3 3374 1084.3 3402.67 1066.3 3428C1048.96 3453.33 1024.96 3473.33 994.297 3488C964.297 3502.67 929.964 3510 891.297 3510ZM1334.13 3497C1282.79 3497 1243.46 3484.33 1216.13 3459C1188.79 3433.67 1175.13 3392.67 1175.13 3336V3092H1102.13V2977H1175.13V2872L1310.13 2858V2977H1420.13V3092H1310.13V3329C1310.13 3361 1324.13 3377 1352.13 3377H1408.13V3497H1334.13ZM1465.25 3497V2977H1596.25V3076C1604.92 3038.67 1622.58 3010.33 1649.25 2991C1675.92 2971 1711.92 2962.33 1757.25 2965V3092H1738.25C1699.58 3092 1666.92 3104.33 1640.25 3129C1613.58 3153.67 1600.25 3187.67 1600.25 3231V3497H1465.25ZM2033.77 3510C1980.44 3510 1932.77 3497.67 1890.77 3473C1848.77 3448.33 1815.77 3415.67 1791.77 3375C1768.44 3333.67 1756.77 3288 1756.77 3238C1756.77 3188 1768.44 3142.33 1791.77 3101C1815.77 3059.67 1848.77 3026.67 1890.77 3002C1932.77 2977.33 1980.44 2965 2033.77 2965C2087.77 2965 2135.44 2977.33 2176.77 3002C2218.77 3026.67 2251.44 3059.67 2274.77 3101C2298.77 3142.33 2310.77 3188 2310.77 3238C2310.77 3288 2298.77 3333.67 2274.77 3375C2251.44 3415.67 2218.77 3448.33 2176.77 3473C2135.44 3497.67 2087.77 3510 2033.77 3510ZM2033.77 3387C2062.44 3387 2087.44 3380.33 2108.77 3367C2130.11 3353 2146.44 3334.67 2157.77 3312C2169.77 3289.33 2175.77 3264.67 2175.77 3238C2175.77 3210.67 2169.77 3185.67 2157.77 3163C2146.44 3140.33 2130.11 3122.33 2108.77 3109C2087.44 3095 2062.44 3088 2033.77 3088C2005.11 3088 1980.11 3095 1958.77 3109C1937.44 3122.33 1920.77 3140.33 1908.77 3163C1897.44 3185.67 1891.77 3210.67 1891.77 3238C1891.77 3264.67 1897.44 3289.33 1908.77 3312C1920.77 3334.67 1937.44 3353 1958.77 3367C1980.11 3380.33 2005.11 3387 2033.77 3387ZM2370.52 3497V2767H2505.52V3497H2370.52ZM2822.37 3510C2775.03 3510 2731.7 3498 2692.37 3474C2653.7 3449.33 2622.7 3416.67 2599.37 3376C2576.7 3334.67 2565.37 3289 2565.37 3239C2565.37 3201.67 2572.03 3166.67 2585.37 3134C2598.7 3100.67 2617.03 3071.67 2640.37 3047C2663.7 3021.67 2690.7 3002 2721.37 2988C2752.7 2973.33 2786.37 2966 2822.37 2966C2867.7 2966 2903.03 2974.67 2928.37 2992C2953.7 3008.67 2973.37 3031 2987.37 3059V2977H3121.37V3497H2990.37V3412C2976.37 3441.33 2956.37 3465 2930.37 3483C2905.03 3501 2869.03 3510 2822.37 3510ZM2844.37 3388C2874.37 3388 2900.03 3381.33 2921.37 3368C2943.37 3354 2960.37 3335.67 2972.37 3313C2984.37 3290.33 2990.37 3265.67 2990.37 3239C2990.37 3211.67 2984.37 3186.67 2972.37 3164C2960.37 3141.33 2943.37 3123 2921.37 3109C2900.03 3095 2874.37 3088 2844.37 3088C2815.7 3088 2790.37 3095 2768.37 3109C2747.03 3122.33 2730.37 3140.33 2718.37 3163C2706.37 3185.67 2700.37 3210.67 2700.37 3238C2700.37 3264 2706.37 3288.67 2718.37 3312C2730.37 3334.67 2747.03 3353 2768.37 3367C2790.37 3381 2815.7 3388 2844.37 3388ZM3500.58 3510C3453.91 3510 3417.58 3501 3391.58 3483C3366.24 3465 3346.58 3441.33 3332.58 3412V3497H3201.58V2767H3336.58V3057C3350.58 3029.67 3370.24 3007.67 3395.58 2991C3420.91 2974.33 3455.91 2966 3500.58 2966C3536.58 2966 3569.91 2973.33 3600.58 2988C3631.91 3002 3659.24 3021.67 3682.58 3047C3705.91 3071.67 3724.24 3100.67 3737.58 3134C3750.91 3166.67 3757.58 3201.67 3757.58 3239C3757.58 3289 3745.91 3334.67 3722.58 3376C3699.91 3416.67 3669.24 3449.33 3630.58 3474C3591.91 3498 3548.58 3510 3500.58 3510ZM3478.58 3388C3507.24 3388 3532.24 3381 3553.58 3367C3575.58 3353 3592.58 3334.67 3604.58 3312C3616.58 3288.67 3622.58 3264 3622.58 3238C3622.58 3210.67 3616.58 3185.67 3604.58 3163C3592.58 3140.33 3575.58 3122.33 3553.58 3109C3532.24 3095 3507.24 3088 3478.58 3088C3449.24 3088 3423.58 3095 3401.58 3109C3379.58 3123 3362.58 3141.33 3350.58 3164C3338.58 3186.67 3332.58 3211.67 3332.58 3239C3332.58 3265.67 3338.58 3290.33 3350.58 3313C3362.58 3335.67 3379.58 3354 3401.58 3368C3423.58 3381.33 3449.24 3388 3478.58 3388ZM4061.91 3510C4008.57 3510 3961.57 3497.67 3920.91 3473C3880.24 3448.33 3848.57 3415.67 3825.91 3375C3803.91 3333.67 3792.91 3288 3792.91 3238C3792.91 3188 3804.57 3142.33 3827.91 3101C3851.24 3059 3882.91 3025.67 3922.91 3001C3963.57 2976.33 4009.91 2964 4061.91 2964C4113.91 2964 4159.57 2976.33 4198.91 3001C4238.91 3025.67 4269.91 3059 4291.91 3101C4314.57 3142.33 4325.91 3188 4325.91 3238C4325.91 3245.33 4325.57 3253 4324.91 3261C4324.24 3269 4323.24 3277.33 4321.91 3286H3932.91C3940.24 3316.67 3954.91 3341.67 3976.91 3361C3999.57 3380.33 4027.91 3390 4061.91 3390C4091.24 3390 4116.57 3383.33 4137.91 3370C4159.91 3356.67 4176.91 3340 4188.91 3320L4293.91 3399C4273.24 3431.67 4242.24 3458.33 4200.91 3479C4159.57 3499.67 4113.24 3510 4061.91 3510ZM4059.91 3080C4027.91 3080 4000.57 3089.67 3977.91 3109C3955.24 3128.33 3940.24 3153.67 3932.91 3185H4189.91C4182.57 3156.33 4167.24 3131.67 4143.91 3111C4121.24 3090.33 4093.24 3080 4059.91 3080Z" fill="white"/>
<path d="M917.563 4805C901.563 4805 887.896 4799.33 876.563 4788C865.229 4776.67 859.562 4763 859.562 4747C859.562 4731 865.229 4717.33 876.563 4706C887.896 4694.67 901.563 4689 917.563 4689C933.563 4689 947.229 4694.67 958.563 4706C969.896 4717.33 975.563 4731 975.563 4747C975.563 4763 969.896 4776.67 958.563 4788C947.229 4799.33 933.563 4805 917.563 4805ZM533 4597L593 4497H1233V4597H533ZM1113 4597V4497H1233V4319L1333 4297V4574C1333 4582 1329.67 4587.67 1323 4591C1316.33 4594.33 1309.67 4596.33 1303 4597C1296.33 4597 1293 4597 1293 4597H1113ZM1482.61 4497L1382.61 4447V3819L1482.61 3797V4497ZM1532.61 4597C1505.28 4597 1480.28 4590.33 1457.61 4577C1434.94 4563.67 1416.61 4545.67 1402.61 4523C1389.28 4499.67 1382.61 4474.33 1382.61 4447H1482.61C1482.61 4461 1487.28 4473 1496.61 4483C1506.61 4492.33 1518.61 4497 1532.61 4497C1546.61 4497 1558.28 4492.33 1567.61 4483C1577.61 4473 1582.61 4461 1582.61 4447H1682.61C1682.61 4474.33 1675.61 4499.67 1661.61 4523C1648.28 4545.67 1630.28 4563.67 1607.61 4577C1584.94 4590.33 1559.94 4597 1532.61 4597ZM1582.61 4497V3797L1682.61 3819V4447L1582.61 4497ZM1532.61 4797C1505.28 4797 1480.28 4790.33 1457.61 4777C1434.94 4763.67 1416.61 4745.33 1402.61 4722C1389.28 4699.33 1382.61 4674.33 1382.61 4647C1382.61 4619 1389.28 4593.67 1402.61 4571C1416.61 4548.33 1434.94 4530.33 1457.61 4517C1480.28 4503.67 1505.28 4497 1532.61 4497C1559.94 4497 1584.94 4503.67 1607.61 4517C1630.28 4530.33 1648.28 4548.33 1661.61 4571C1674.94 4593.67 1681.61 4619 1681.61 4647C1681.61 4674.33 1674.94 4699.33 1661.61 4722C1648.28 4745.33 1630.28 4763.67 1607.61 4777C1584.94 4790.33 1559.94 4797 1532.61 4797ZM1532.61 4697C1546.61 4697 1558.28 4692 1567.61 4682C1577.61 4672.67 1582.61 4661 1582.61 4647C1582.61 4633 1577.61 4621 1567.61 4611C1558.28 4601.67 1546.61 4597 1532.61 4597C1518.61 4597 1506.61 4601.67 1496.61 4611C1487.28 4621 1482.61 4633 1482.61 4647C1482.61 4661 1487.28 4672.67 1496.61 4682C1506.61 4692 1518.61 4697 1532.61 4697ZM1881.22 4597V4497H2027.22V4597H1881.22ZM1622.22 4747C1660.22 4757 1691.22 4761.33 1715.22 4760C1739.89 4758.67 1758.89 4753.33 1772.22 4744C1785.55 4734.67 1794.55 4723 1799.22 4709C1804.55 4695 1807.22 4681 1807.22 4667V4319L1907.22 4297V4657C1907.22 4692.33 1899.55 4721 1884.22 4743C1869.55 4765.67 1850.22 4782 1826.22 4792C1802.22 4802.67 1776.89 4807.67 1750.22 4807C1724.22 4806.33 1699.89 4800.67 1677.22 4790C1653.89 4780 1635.55 4765.67 1622.22 4747ZM2867.02 4597V4497H3042.02V4597H2867.02ZM1957.02 4597V4497H2132.02V4597H1957.02ZM2122.02 4547V3819L2222.02 3797V4547H2122.02ZM1962.02 4597L2022.02 4497H2282.02V4597H1962.02ZM2167.02 4597V4497H2822.02C2822.69 4469 2817.02 4445.33 2805.02 4426C2793.69 4406.67 2769.36 4397 2732.02 4397H2167.02V4297H2732.02C2773.36 4297 2806.36 4302.67 2831.02 4314C2856.36 4325.33 2875.36 4340.67 2888.02 4360C2901.36 4379.33 2910.36 4401 2915.02 4425C2919.69 4449 2922.02 4474 2922.02 4500C2922.02 4525.33 2922.02 4550 2922.02 4574C2922.02 4582 2918.69 4587.67 2912.02 4591C2905.36 4594.33 2898.69 4596.33 2892.02 4597C2885.36 4597 2882.02 4597 2882.02 4597H2167.02ZM3001.67 4597V4497H3121.67V4319L3221.67 4297V4497H3321.67V4319L3421.67 4297V4497H3521.67V4319L3621.67 4297V4574C3621.67 4582 3618.34 4587.67 3611.67 4591C3605.01 4594.33 3598.34 4596.33 3591.67 4597C3585.01 4597 3581.67 4597 3581.67 4597H3001.67ZM3674.75 3738V3705C3674.75 3692.33 3675.08 3682.33 3675.75 3675C3676.42 3667 3678.08 3658 3680.75 3648C3686.08 3628 3695.08 3611.67 3707.75 3599C3720.42 3585.67 3739.75 3579 3765.75 3579C3775.08 3579 3786.08 3582 3798.75 3588C3812.08 3593.33 3822.08 3603.67 3828.75 3619C3824.75 3617 3816.08 3614.33 3802.75 3611C3789.42 3607.67 3778.08 3607.33 3768.75 3610C3758.08 3612.67 3750.42 3617.67 3745.75 3625C3741.08 3631.67 3738.42 3638.33 3737.75 3645C3737.08 3651 3736.75 3655.33 3736.75 3658C3736.75 3671.33 3740.08 3680.67 3746.75 3686C3754.08 3691.33 3762.42 3694.67 3771.75 3696C3781.75 3696.67 3790.75 3697 3798.75 3697H3824.75L3825.75 3738H3674.75ZM3601.75 3747L3631.75 3697H3871.75L3841.75 3747H3601.75ZM3866.67 4539C3862.67 4553.67 3853.34 4566.33 3838.67 4577C3824.67 4587 3808.01 4594 3788.67 4598C3770.01 4602 3751.67 4602 3733.67 4598C3716.34 4594 3701.67 4585.67 3689.67 4573C3677.67 4559.67 3671.67 4541 3671.67 4517V3819L3771.67 3797V4517C3771.67 4529 3775.34 4537.67 3782.67 4543C3790.01 4547.67 3799.01 4550.33 3809.67 4551C3820.34 4551 3831.01 4549.67 3841.67 4547C3852.34 4544.33 3860.67 4541.67 3866.67 4539Z" fill="white"/>
</svg>
